<?xml version="1.0" encoding="utf-8"?>
<!-- Generator: Adobe Illustrator 20.1.0, SVG Export Plug-In . SVG Version: 6.00 Build 0)  -->
<svg version="1.1" id="Layer_1" xmlns="http://www.w3.org/2000/svg" xmlns:xlink="http://www.w3.org/1999/xlink" x="0px" y="0px"
	 viewBox="0 0 180 187" style="enable-background:new 0 0 180 187;" xml:space="preserve">
<style type="text/css">
	.st0{fill:#889E7E;stroke:#000000;stroke-width:5;stroke-miterlimit:10;}
	.st1{fill:#E73A25;stroke:#000000;stroke-width:4;stroke-miterlimit:10;}
	.st2{stroke:#000000;stroke-width:3;stroke-miterlimit:10;}
	.st3{fill:#E6E7E8;stroke:#000000;stroke-linecap:round;stroke-miterlimit:10;}
</style>
<circle class="st0" cx="90" cy="93.6" r="66.5"/>
<g>
	<path class="st1" d="M67.1,78.4L51,78.7c0-0.1,0-0.2,0-0.3c0-8.8,7.3-16.1,16.1-16.1s16.1,7.3,16.1,16.1H67.1z"/>
	<path class="st2" d="M67.2,78.5l-5.9,0.1c0,0,0-0.1,0-0.1c0-3.3,2.7-5.9,5.9-5.9s5.9,2.7,5.9,5.9H67.2z"/>
	<path class="st1" d="M112.9,78.4l-16.1,0.3c0-0.1,0-0.2,0-0.3c0-8.8,7.3-16.1,16.1-16.1S129,69.6,129,78.4H112.9z"/>
	<path class="st2" d="M113,78.5l-5.9,0.1c0,0,0-0.1,0-0.1c0-3.3,2.7-5.9,5.9-5.9s5.9,2.7,5.9,5.9H113z"/>
</g>
<g>
	<g>
		<path d="M51.9,53.1c0,0,3,0,4.2,0.1c3,0.3,6.1,1.1,9,1.8c8,2.1,15.7,4.9,23.4,8c3,1.2,4.3-3.6,1.3-4.8c-9.6-3.9-19.6-7.7-29.8-9.5
			c-3.6-0.6-10.1-2.1-12.4,1.8C46,53.3,50.3,55.9,51.9,53.1L51.9,53.1z"/>
	</g>
</g>
<g>
	<g>
		<path d="M131.8,50.6c-2.3-3.9-8.9-2.4-12.5-1.8c-10.3,1.8-20.2,5.6-29.8,9.5c-2.9,1.2-1.7,6,1.3,4.8c7.7-3.1,15.5-6,23.5-8.1
			c1.6-0.4,12.3-3.3,13.1-1.9C129.1,55.9,133.4,53.4,131.8,50.6L131.8,50.6z"/>
	</g>
</g>
<path class="st1" d="M117.3,136.9H62.7c-6.6,0-12-5.4-12-12v-20.5c0-6.6,5.4-12,12-12h54.6c6.6,0,12,5.4,12,12v20.5
	C129.3,131.5,123.9,136.9,117.3,136.9z"/>
<g>
	<polygon class="st3" points="59.9,94.3 68.1,108.5 76.3,94.3 	"/>
	<polygon class="st3" points="75,94.3 83.2,108.5 91.4,94.3 	"/>
	<polygon class="st3" points="90,94.3 98.2,108.5 106.4,94.3 	"/>
	<polygon class="st3" points="104.8,94.3 113,108.5 121.2,94.3 	"/>
</g>
<g>
	<polygon class="st3" points="120.6,134.8 112.4,120.6 104.2,134.8 	"/>
	<polygon class="st3" points="105.5,134.8 97.3,120.6 89.1,134.8 	"/>
	<polygon class="st3" points="90.5,134.8 82.3,120.6 74.1,134.8 	"/>
	<polygon class="st3" points="75.8,134.8 67.6,120.6 59.4,134.8 	"/>
</g>
</svg>
